<?xml version="1.0" encoding="UTF-8"?><svg xmlns="http://www.w3.org/2000/svg" xmlns:xlink="http://www.w3.org/1999/xlink" enable-background="new 0 0 499 490" height="450.6" preserveAspectRatio="xMidYMid meet" version="1.0" viewBox="101.6 17.1 286.1 450.6" width="286.1" zoomAndPan="magnify"><defs><linearGradient id="a" xlink:actuate="onLoad" xlink:show="other" xlink:type="simple" xmlns:xlink="http://www.w3.org/1999/xlink"><stop offset="0" stop-color="#223720"/><stop offset="1" stop-color="#375934" stop-opacity="0"/></linearGradient><linearGradient id="b" xlink:actuate="onLoad" xlink:show="other" xlink:type="simple" xmlns:xlink="http://www.w3.org/1999/xlink"><stop offset="0" stop-color="#050000" stop-opacity=".498"/><stop offset="1" stop-opacity="0"/></linearGradient><linearGradient gradientUnits="userSpaceOnUse" id="f" x1="254.47" x2="234.25" xlink:actuate="onLoad" xlink:href="#a" xlink:show="other" xlink:type="simple" xmlns:xlink="http://www.w3.org/1999/xlink" y1="333.04" y2="342.37"/><linearGradient gradientUnits="userSpaceOnUse" id="g" x1="172.41" x2="142.86" xlink:actuate="onLoad" xlink:href="#a" xlink:show="other" xlink:type="simple" xmlns:xlink="http://www.w3.org/1999/xlink" y1="264.14" y2="277.72"/><linearGradient gradientUnits="userSpaceOnUse" id="h" x1="258.72" x2="340.27" xlink:actuate="onLoad" xlink:href="#a" xlink:show="other" xlink:type="simple" xmlns:xlink="http://www.w3.org/1999/xlink" y1="249.3" y2="271.35"/><linearGradient gradientUnits="userSpaceOnUse" id="j" x1="238.56" x2="189.3" xlink:actuate="onLoad" xlink:href="#a" xlink:show="other" xlink:type="simple" xmlns:xlink="http://www.w3.org/1999/xlink" y1="272.54" y2="334.44"/><linearGradient gradientUnits="userSpaceOnUse" id="l" x1="313.27" x2="346.56" xlink:actuate="onLoad" xlink:href="#a" xlink:show="other" xlink:type="simple" xmlns:xlink="http://www.w3.org/1999/xlink" y1="365.91" y2="325.54"/><linearGradient gradientUnits="userSpaceOnUse" id="c" x1="311.58" x2="230.14" xlink:actuate="onLoad" xlink:href="#b" xlink:show="other" xlink:type="simple" xmlns:xlink="http://www.w3.org/1999/xlink" y1="182.52" y2="200.85"/><linearGradient gradientUnits="userSpaceOnUse" id="d" x1="192.8" x2="161.09" xlink:actuate="onLoad" xlink:href="#b" xlink:show="other" xlink:type="simple" xmlns:xlink="http://www.w3.org/1999/xlink" y1="193.93" y2="215.35"/><linearGradient gradientUnits="userSpaceOnUse" id="e" x1="207.26" x2="232.57" xlink:actuate="onLoad" xlink:href="#b" xlink:show="other" xlink:type="simple" xmlns:xlink="http://www.w3.org/1999/xlink" y1="97.323" y2="150.27"/><filter id="i" xlink:actuate="onLoad" xlink:show="other" xlink:type="simple" xmlns:xlink="http://www.w3.org/1999/xlink"><feGaussianBlur stdDeviation="1.656"/></filter><filter id="k" xlink:actuate="onLoad" xlink:show="other" xlink:type="simple" xmlns:xlink="http://www.w3.org/1999/xlink"><feGaussianBlur stdDeviation="1.469"/></filter><filter height="1.4" id="n" width="1.189" x="-.095" xlink:actuate="onLoad" xlink:show="other" xlink:type="simple" xmlns:xlink="http://www.w3.org/1999/xlink" y="-.2"><feGaussianBlur stdDeviation="4.643"/></filter><filter height="1.629" id="m" width="1.573" x="-.287" xlink:actuate="onLoad" xlink:show="other" xlink:type="simple" xmlns:xlink="http://www.w3.org/1999/xlink" y="-.315"><feGaussianBlur stdDeviation="3.288"/></filter></defs><g id="change1_1"><path d="m210.58 35.585s-83.038 4.949-82.5 23.906c0.5484 19.327-14.899 56.524-15.419 56.562l4.0235 27.105c21.1 40.006 23.795 108.39 90.312 125.6 48.604 12.575 90.466-85.994 128.72-107.7 14.314-8.1233 13.12-17.171 13.12-17.171l-33.934-69.224-40.72-20.36s12.291-12.419-46.988-22.988c-1.9669-0.3507-16.617 4.2798-16.617 4.2798z" fill="#7d0000" stroke="#000" stroke-width="2"/></g><g id="change2_1"><path d="m251.17 57.994c1.2311 6.9636 32.153 14.752 31.148 20.55-5.4619 8.4395-19.346 24.876-35.594 47.102 17.834-7.8742 68.178-41.987 84.392-52.249-25.52 2.175-50.421-56.281-79.946-15.404z" fill="#dc0000" fill-rule="evenodd" stroke="#000" stroke-width="2"/></g><g id="change2_2"><path d="m199.56 74.865c-2.7178-3.3418-7.9259 6.359-13.095 9.2174-13.465 7.4451-1.4095 18.632 0.1769 22.733 1.5467-1.9416 23.186 5.7785 26.027 1.6786 10.675-15.403-21.391-16.924-13.108-33.629z" fill="#dc0000" fill-rule="evenodd" stroke="#000" stroke-width="2"/></g><g id="change2_3"><path d="m203.45 67.832c-7.7314 2.3497-12.177 19.626 2.1138 11.95 3.2057-1.5972-7.3175-10.052 11.601-4.8953-3.3886 4.6696-13.82 19.088-22.032 2.0079 7.5768 51.066 37.957 9.3076 28.236-6.4295-3.0505-1.7233-8.9234-8.1433-19.918-2.6326z" fill="#dc0000" fill-rule="evenodd" stroke="#000" stroke-width="2"/></g><g id="change2_4"><path d="m295.26 93.473c-20.276 6.5443-26.044 11.054-38.739 20.818-8.7004-4.8152-23.506 4.3683-36.198 8.0195-9.4455 3.5482-35.953 16.143-55.815 17.385 0.2508-0.8415-4.0401 5.84 5.0962 8.9871 16.914 8.2573 50.66 66.258 70.163 75.219 18.068-2.9962 28.992-60.536 36.678-67.616 11.777-17.221 23.419-46.629 18.814-62.813z" fill="#dc0000" fill-rule="evenodd" stroke="#000" stroke-width="2"/></g><g id="change2_5"><path d="m191.05 262.96c35.828 7.7828 23.418-54.412 45.02-74.005-7.4323-4.1282-32.149-3.669-45.175-10.332-25.308-12.946-42.646-39.998-72.653-32.57 13.721 35.087 40.918 122.64 72.808 116.91z" fill="#dc0000" fill-rule="evenodd" stroke="#000" stroke-width="2"/></g><g id="change2_6"><path d="m294.41 93.31c25.131 54.509-22.013 63.504-48.015 85.04 35.81 15.014 46.345-3.0911 87.334-17.312 21.011-7.2893 30.641 16.229 36.837 7.3305-36.782-46.996 9.7213-100.43-76.156-75.059z" fill="#dc0000" fill-rule="evenodd" stroke="#000" stroke-width="2"/></g><g id="change2_7"><path d="m196.41 264.35c17.678 21.831 40.596 10.877 60.714-0.1186 30.231-22.405 58.749-78.676 81.391-103.84-23.499 4.2946-41.179 19.265-62.629 23.074-6.6287 1.1778-23.943-7.376-29.951-5.3362-45.546 38.106-23.638 61.903-49.525 86.221z" fill="#dc0000" fill-rule="evenodd" stroke="#000" stroke-width="2"/></g><path d="m274.88 213.84c-8.6921 37.399-52.813 60.759-32.694 49.763 27.689 8.7309 70.899-75.921 93.541-101.08-25.222 5.4873-38.131 18.072-59.582 21.882-6.6287 1.1778-24.738-6.5809-30.216-6.2638-58.89 65.43 68.817-2.2757 28.951 35.704z" fill="url(#c)" fill-rule="evenodd"/><path d="m194.91 261.25c16.546-0.7872 15.705-52.269 41.163-72.291-7.4323-4.1282-32.149-3.669-45.175-10.332-25.308-12.946-42.646-39.998-72.653-32.57 65.997 94.648 44.775 120.92 76.665 115.19z" fill="url(#d)" fill-rule="evenodd"/><g id="change2_8"><path d="m103.76 155.52c41.726-22.605 60.007 47.59 111.07 47.973 1.2867-6.5723 30.664-23.537 35.234-25.722-34.779-26.886-141.25-26.765-126.03-70.414-22.113 1.2336-21.473 33.386-20.273 48.163z" fill="#dc0000" fill-rule="evenodd" stroke="#000" stroke-width="2"/></g><g id="change2_9"><path d="m164.6 139.76c0.0311-11.185-20.23-25.89-18.473-38.209 3.3495-23.485 11.168-32.559 59.127-52.617-51.797 6.5598-92.41 26.378-82.43 59.696 4.3514 13.496 29.956 33.34 41.777 31.13z" fill="#dc0000" fill-rule="evenodd" stroke="#000" stroke-width="2"/></g><g id="change2_10"><path d="m227.05 27.846c-17.996 19.654-101.63 49.214-68.206 104.51 14.738-5.6677 18.552-15.551 24.392-24.461-12.46-14.54-10.206-21.997 0.6308-34.184 8.9916-10.112 40.741-24.853 54.072-12.238 7.3907 6.0417 7.2583 14.283 7.1279 16.968-10.078 27.943-26.096 17.347-14.528 25.185 4.0063 7.8762-4.0952 27.812 10.188 40.688 8.4903-7.6869 38.996-69.657 55.071-74.163-35.146-1.5968-52.341-24.128-68.747-42.307z" fill="#dc0000" fill-rule="evenodd" stroke="#000" stroke-width="2"/></g><g id="change2_11"><path d="m315.31 133.79c-22.238-10.857-51.368 0.6665-68.382 34.205-48.551-24.269-69.47-3.2476-73.761-4.5607 0.7223-13.274-1.9278-13.785-7.7502-22.85 48.804 2.3264 114.59-52.26 124.82-42.399 19.281 10.485-0.5328 24.879 25.074 35.605z" fill="#dc0000" fill-rule="evenodd" stroke="#000" stroke-width="2"/></g><path d="m315.31 133.79c-22.238-10.857-51.368 0.6665-68.382 34.205-48.551-24.269-69.47-3.2476-73.761-4.5607 0.7223-13.274-1.9278-13.785-7.7502-22.85 34.48 10.315 109.36-51.158 124.82-42.399 19.281 10.485-0.5328 24.879 25.074 35.605z" fill="url(#e)" fill-rule="evenodd"/><g id="change2_12"><path d="m163.18 140.39c15.943 1.1569 8.8582 8.6257 49.677-9.7466 9.7372-4.3826 24.945-14.541 34.81-11.944 3.2978-3.1622 7.8381-8.2514 10.956-11.479-11.238-7.7668-16.265-11.282-15.564-22.033-18.594 1.3316-42.923 18.823-61.89 16.361-5.3594 8.0576-5.1968 28.916-17.988 38.842z" fill="#dc0000" fill-rule="evenodd" stroke="#000" stroke-width="2"/></g><g id="change3_1"><path d="m252.74 264.49c5.711 19.906 1.863 38.245-2 58 4.006 11.327 56.113 129.97 59.186 142.23-3.222 0.444-5.418 1.916-9 2-4.002-12.998-58.472-130.94-62.186-144.23-17.346-5.922-6.599-32.121-11-48 8.579-3.088 12.491-10.842 25-10z" fill="#5d9732" fill-rule="evenodd"/></g><path d="m252.74 264.49c5.711 19.906 1.863 38.245-2 58 4.006 11.327 56.113 129.97 59.186 142.23-3.222 0.444-5.418 1.916-9 2-4.002-12.998-58.472-130.94-62.186-144.23-17.346-5.922-6.599-32.121-11-48 8.579-3.088 12.491-10.842 25-10z" fill="url(#f)" fill-rule="evenodd" stroke="#000" stroke-width="2"/><g id="change4_1"><path d="m296.13 440.82s-3.1652-11.969-7.7413-15.716c0 0 1.7342 11.005-14.412 7.5418-3.026-0.649 5.9105 6.6565 22.154 8.1743z" fill="#45342e" stroke="#000"/></g><g id="change3_2"><path d="m199.93 266.72c-24.57 11.061-65.946 5.2-62.559 38.509-14.731-36.918 6.098-30.948 11.626-38.367 4.0945-5.4942 0.8778-14.268 15.402-16.63 4.1289-0.6713 22.65 10.268 25.536 7.9949 5.6649 4.5392 0.6565 2.1402 9.9954 8.4925z" fill="#5d9732" fill-rule="evenodd"/></g><path d="m199.93 266.72c-24.57 11.061-65.946 5.2-62.559 38.509-14.731-36.918 6.098-30.948 11.626-38.367 4.0945-5.4942 0.8778-14.268 15.402-16.63 4.1289-0.6713 22.65 10.268 25.536 7.9949 5.6649 4.5392 0.6565 2.1402 9.9954 8.4925z" fill="url(#g)" fill-rule="evenodd" stroke="#000" stroke-width="2"/><g><g id="change3_5"><path d="m277.51 241.69c26.992-24.198 42.047 34.22 74.18 23.869-15.254 28.907-57.462-11.754-68.239 4.2066-7.6524 11.333-10.07 31.03-28.689 26.795-5.2928-1.2041-4.963-31.634-11.344-29.898 16.948-8.2442 16.349-5.9992 34.092-24.972z" fill="#5d9732" fill-rule="evenodd" transform="translate(-3.506 2.244)"/></g><path d="m277.94 241.64c25.322-22.415 41.614 34.266 73.747 23.915-15.254 28.907-48.547-22.003-63.829-12.914-27.473 16.34-1.4152 42.526-32.744 43.739-5.424 0.21-5.1985-28.763-11.023-30.481 8.9291-4.6801 12.542-2.0553 33.849-24.259z" fill="url(#h)" fill-rule="evenodd" filter="url(#i)" transform="translate(-3.506 2.244)"/><path d="m277.51 241.69c26.992-24.198 42.047 34.22 74.18 23.869-15.254 28.907-57.462-11.754-68.239 4.2066-7.6524 11.333-10.07 31.03-28.689 26.795-5.2928-1.2041-4.963-31.634-11.344-29.898 16.948-8.2442 16.349-5.9992 34.092-24.972z" fill="none" stroke="#000" stroke-width="2" transform="translate(-3.506 2.244)"/></g><g id="change3_3"><path d="m242.42 267.31c5.614 41.729-18.887 60.391-17 104-8.401-15.499-4.237-34.746-13-51-6.489-12.037-19.035-19.149-16-38 0.863-5.359 5.0146-9.5564 2.8746-15.813 17.109 12.878 29.201 1.9764 43.125 0.8134z" fill="#5d9732" fill-rule="evenodd"/></g><path d="m199.88 267.15s8.9756 4.8746 14.316 5.8311c6.3768 0.7174 17.574-3.3549 27.565-5.6876 0.2364-0.0552 1.2657 13.94 0.8873 20.096-0.7924 12.888-8.8923 32.76-8.8923 32.76s-5.5236 15.732-7.3317 24.049-1.4971 25.294-1.4971 25.294-3.3374-17.435-3.612-26.269c-0.2285-7.3503 1.6418-22 1.6418-22l2.2986-15.597c1.0555-7.162-7.4745-13.096-13.627-16.911-4.5253-2.8059-15.381 1.9581-15.208-3.0167 0.2739-7.861 3.9712-8.2437 4.4084-16.839l-0.9494-1.7089z" fill="url(#j)" filter="url(#k)"/><path d="m242.42 267.31c5.614 41.729-18.887 60.391-17 104-8.401-15.499-4.237-34.746-13-51-6.489-12.037-19.035-19.149-16-38 0.863-5.359 5.0146-9.5564 2.8746-15.813 17.109 12.878 29.201 1.9764 43.125 0.8134z" fill="none" stroke="#000" stroke-width="2"/><g id="change3_4"><path d="m272.23 339.66c-21.309 7.5313-13.968 3.3506-18.612 15.368-0.9729 21.277 15.505 51.651 26.066 56.544 11.796 10.543 32.467 9.2584 48.327 6.5818 17.464-2.9472 35.633-13.81 55.26-17.135-3.3765-37.095-23.257-57.212-48.278-68.336-2.217 3.1796-4.0585-0.6372-6.7835 2.2525-13.327-6.8189-37.009-5.1732-55.98 4.7249z" fill="#5d9732" fill-rule="evenodd"/></g><path d="m272.23 339.66c-21.309 7.5313-11.288-1.8424-15.931 10.175 8.0729 0.3374 40.632 11.95 51.696 15.67 29.464 11.802 50.216 20.528 75.277 35.513-3.3765-37.095-23.257-57.212-48.278-68.336-2.217 3.1796-4.0585-0.6372-6.7835 2.2525-13.327-6.8189-37.009-5.1732-55.98 4.7249z" fill="url(#l)" fill-rule="evenodd" opacity=".791"/><path d="m272.23 339.66c-21.309 7.5313-13.968 3.3506-18.612 15.368-0.9729 21.277 15.505 51.651 26.066 56.544 11.796 10.543 32.467 9.2584 48.327 6.5818 17.464-2.9472 35.633-13.81 55.26-17.135-3.3765-37.095-23.257-57.212-48.278-68.336-2.217 3.1796-4.0585-0.6372-6.7835 2.2525-13.327-6.8189-37.009-5.1732-55.98 4.7249z" fill="none" stroke="#000" stroke-width="1.638"/><g id="change5_1"><path d="m257.41 349.73c32.456 10.219 55.591 15.252 124.53 49.914-89.683-48.642-83.282-33.528-121.03-52.084-3.4127-1.7575-2.4924 1.8564-3.5013 2.1694z" fill="#223819" fill-rule="evenodd"/></g><g id="change5_2"><path d="m322.52 335.24c-11.136 3.0176-45.443 12.15-46.331 18.806 3.3344 0.7692 5.4194 3.3666 4.5037 2.0025-3.3024-4.9192 13.717-9.6959 13.295-11.048l28.532-9.7609z" fill="#223819" fill-rule="evenodd"/></g><g id="change5_3"><path d="m275.87 355.12c6.7228 28.185 14.528 45.514 40.716 62.396-37.483-25.596-41.591-73.513-40.716-62.396z" fill="#223819" fill-rule="evenodd"/></g><g id="change5_4"><path d="m312.22 366.24c1.5805 2.5305 0.6473-11.595 43.422-8.3192-4.8967-0.3435-28.244-6.1455-47.375 7.1591-3.157 2.1955 0.0793-0.1567 3.9529 1.1601z" fill="#223819" fill-rule="evenodd"/></g><g id="change5_5"><path d="m307.19 364.83c-0.7983 0.2111-2.3475-0.8917-3.1458-0.6805-2.1778 27.112 18.885 31.964 37.342 47.508-16.478-15.191-40.978-26.61-34.197-46.827z" fill="#223819" fill-rule="evenodd"/></g><g id="change5_6"><path d="m334.78 376.1c-0.7983 0.2111-2.3475-0.8917-3.1458-0.6805 11.525 23.17 17.947 10.94 33.964 28.174-3.1501-11.437-25.211-8.4017-30.818-27.493z" fill="#223819" fill-rule="evenodd"/></g><g id="change6_1"><path d="m305.39 396.25a13.759 12.545 0 1 1 -27.517 0 13.759 12.545 0 1 1 27.517 0z" fill="#cedf4a" filter="url(#m)" opacity=".35" transform="matrix(1.3448 0 0 1.0664 -104.97 -37.928)"/></g><g id="change7_1"><path d="m261.58 357.24c-14.259 10.326 16.226 49.169 26.797 51.136 7.2886 6.0771 24.093 4.9169 87.275-7.867 0 0-26.551-5.6544-66.624-5.1627-48.431-8.6046-27.535-45.973-47.448-38.106z" fill="#89df4a" filter="url(#n)" opacity=".759"/></g></svg>